version = 1
nColumns = 19
nRows = 30
inDegrees = yes
endheader 
time	r_ground_force_vx	r_ground_force_vy	r_ground_force_vz	r_ground_force_px	r_ground_force_py	r_ground_force_pz	l_ground_force_vx	l_ground_force_vy	l_ground_force_vz	l_ground_force_px	l_ground_force_py	l_ground_force_pz	r_ground_torque_x	r_ground_torque_y	r_ground_torque_z	l_ground_torque_x	l_ground_torque_y	l_ground_torque_z	
          0.42173877	          0.00000000	          0.00000000	          0.00000000	          0.00000000	          0.00000000	          0.00000000	        100.88196415	        638.75222294	        -28.37280561	          0.26545346	          0.00000000	          0.07934508	          0.00000000	          0.00000000	          0.00000000	          0.00000000	          0.41166790	          0.00000000	
          0.42261065	          0.00000000	          0.00000000	          0.00000000	          0.00000000	          0.00000000	          0.00000000	        103.29661763	        627.24017483	        -26.30210750	          0.26649208	          0.00000000	          0.07951573	          0.00000000	          0.00000000	          0.00000000	          0.00000000	          0.43551550	          0.00000000	
          0.42536544	          0.00000000	          0.00000000	          0.00000000	          0.00000000	          0.00000000	          0.00000000	        109.87623404	        591.95648254	        -20.21547518	          0.26992817	          0.00000000	          0.08010056	          0.00000000	          0.00000000	          0.00000000	          0.00000000	          0.54203723	          0.00000000	
          0.42736196	          0.00000000	          0.00000000	          0.00000000	          0.00000000	          0.00000000	          0.00000000	        114.78669629	        570.33570388	        -17.43914944	          0.27182524	          0.00000000	          0.08062452	          0.00000000	          0.00000000	          0.00000000	          0.00000000	          0.61713074	          0.00000000	
          0.42823384	          0.00000000	          0.00000000	          0.00000000	          0.00000000	          0.00000000	          0.00000000	        117.31650225	        564.22147181	        -17.56482923	          0.27193972	          0.00000000	          0.08093400	          0.00000000	          0.00000000	          0.00000000	          0.00000000	          0.61231200	          0.00000000	
          0.43098862	          0.00000000	          0.00000000	          0.00000000	          0.00000000	          0.00000000	          0.00000000	        126.02504449	        544.09982054	        -17.98153496	          0.27200891	          0.00000000	          0.08192998	          0.00000000	          0.00000000	          0.00000000	          0.00000000	          0.57045202	          0.00000000	
          0.43298514	          0.00000000	          0.00000000	          0.00000000	          0.00000000	          0.00000000	          0.00000000	        132.47588023	        528.18607623	        -17.70070053	          0.27224796	          0.00000000	          0.08261446	          0.00000000	          0.00000000	          0.00000000	          0.00000000	          0.54827369	          0.00000000	
          0.43385702	          0.00000000	          0.00000000	          0.00000000	          0.00000000	          0.00000000	          0.00000000	        135.21594545	        521.46628672	        -17.59558065	          0.27236126	          0.00000000	          0.08290539	          0.00000000	          0.00000000	          0.00000000	          0.00000000	          0.53928210	          0.00000000	
          0.43661181	          0.00000000	          0.00000000	          0.00000000	          0.00000000	          0.00000000	          0.00000000	        142.43187809	        501.08340954	        -17.41348512	          0.27270936	          0.00000000	          0.08378195	          0.00000000	          0.00000000	          0.00000000	          0.00000000	          0.51491767	          0.00000000	
          0.43860832	          0.00000000	          0.00000000	          0.00000000	          0.00000000	          0.00000000	          0.00000000	        146.62716357	        486.93813434	        -17.33824422	          0.27295773	          0.00000000	          0.08438322	          0.00000000	          0.00000000	          0.00000000	          0.00000000	          0.50166045	          0.00000000	
          0.43948020	          0.00000000	          0.00000000	          0.00000000	          0.00000000	          0.00000000	          0.00000000	        148.22109580	        480.86968896	        -17.30751440	          0.27306578	          0.00000000	          0.08463783	          0.00000000	          0.00000000	          0.00000000	          0.00000000	          0.49691924	          0.00000000	
          0.44223499	          0.00000000	          0.00000000	          0.00000000	          0.00000000	          0.00000000	          0.00000000	        152.16612439	        462.21466130	        -17.20925687	          0.27339876	          0.00000000	          0.08540805	          0.00000000	          0.00000000	          0.00000000	          0.00000000	          0.48443665	          0.00000000	
          0.44423151	          0.00000000	          0.00000000	          0.00000000	          0.00000000	          0.00000000	          0.00000000	        154.20398312	        449.07112050	        -17.10469079	          0.27363664	          0.00000000	          0.08594062	          0.00000000	          0.00000000	          0.00000000	          0.00000000	          0.47771101	          0.00000000	
          0.44510339	          0.00000000	          0.00000000	          0.00000000	          0.00000000	          0.00000000	          0.00000000	        154.90013310	        443.39247815	        -17.03912220	          0.27374006	          0.00000000	          0.08616779	          0.00000000	          0.00000000	          0.00000000	          0.00000000	          0.47511589	          0.00000000	
          0.44785817	          0.00000000	          0.00000000	          0.00000000	          0.00000000	          0.00000000	          0.00000000	        155.97293126	        425.84478963	        -16.82789068	          0.27405128	          0.00000000	          0.08685184	          0.00000000	          0.00000000	          0.00000000	          0.00000000	          0.46612198	          0.00000000	
          0.44985469	          0.00000000	          0.00000000	          0.00000000	          0.00000000	          0.00000000	          0.00000000	        155.90105918	        413.37343188	        -16.64832184	          0.27426787	          0.00000000	          0.08732076	          0.00000000	          0.00000000	          0.00000000	          0.00000000	          0.45897154	          0.00000000	
          0.45072657	          0.00000000	          0.00000000	          0.00000000	          0.00000000	          0.00000000	          0.00000000	        155.66726425	        407.94789825	        -16.55445623	          0.27436076	          0.00000000	          0.08751976	          0.00000000	          0.00000000	          0.00000000	          0.00000000	          0.45554972	          0.00000000	
          0.45348136	          0.00000000	          0.00000000	          0.00000000	          0.00000000	          0.00000000	          0.00000000	        153.67562798	        391.21218288	        -16.20573433	          0.27462865	          0.00000000	          0.08811156	          0.00000000	          0.00000000	          0.00000000	          0.00000000	          0.44535886	          0.00000000	
          0.45547787	          0.00000000	          0.00000000	          0.00000000	          0.00000000	          0.00000000	          0.00000000	        151.35565150	        379.37294905	        -15.87355516	          0.27480760	          0.00000000	          0.08851070	          0.00000000	          0.00000000	          0.00000000	          0.00000000	          0.43875745	          0.00000000	
          0.45634975	          0.00000000	          0.00000000	          0.00000000	          0.00000000	          0.00000000	          0.00000000	        150.18896709	        374.23969452	        -15.69904543	          0.27488438	          0.00000000	          0.08867897	          0.00000000	          0.00000000	          0.00000000	          0.00000000	          0.43600243	          0.00000000	
          0.45910454	          0.00000000	          0.00000000	          0.00000000	          0.00000000	          0.00000000	          0.00000000	        146.14036124	        357.86397751	        -14.97899362	          0.27513264	          0.00000000	          0.08918918	          0.00000000	          0.00000000	          0.00000000	          0.00000000	          0.42457166	          0.00000000	
          0.46110106	          0.00000000	          0.00000000	          0.00000000	          0.00000000	          0.00000000	          0.00000000	        142.93322044	        345.81631438	        -14.29915824	          0.27532032	          0.00000000	          0.08954101	          0.00000000	          0.00000000	          0.00000000	          0.00000000	          0.41315406	          0.00000000	
          0.46197294	          0.00000000	          0.00000000	          0.00000000	          0.00000000	          0.00000000	          0.00000000	        141.48354704	        340.51671504	        -13.96181821	          0.27540494	          0.00000000	          0.08969102	          0.00000000	          0.00000000	          0.00000000	          0.00000000	          0.40734212	          0.00000000	
          0.46472772	          0.00000000	          0.00000000	          0.00000000	          0.00000000	          0.00000000	          0.00000000	        136.47551621	        324.09502939	        -12.88446561	          0.27566664	          0.00000000	          0.09015473	          0.00000000	          0.00000000	          0.00000000	          0.00000000	          0.38906327	          0.00000000	
          0.46672424	          0.00000000	          0.00000000	          0.00000000	          0.00000000	          0.00000000	          0.00000000	        132.44662399	        312.48795617	        -12.10368774	          0.27585035	          0.00000000	          0.09048380	          0.00000000	          0.00000000	          0.00000000	          0.00000000	          0.37605519	          0.00000000	
          0.46759612	          0.00000000	          0.00000000	          0.00000000	          0.00000000	          0.00000000	          0.00000000	        130.59085274	        307.48512144	        -11.76053520	          0.27592925	          0.00000000	          0.09062656	          0.00000000	          0.00000000	          0.00000000	          0.00000000	          0.37041277	          0.00000000	
          0.47035091	          0.00000000	          0.00000000	          0.00000000	          0.00000000	          0.00000000	          0.00000000	        124.57589766	        291.74421477	        -10.62106656	          0.27618478	          0.00000000	          0.09107664	          0.00000000	          0.00000000	          0.00000000	          0.00000000	          0.35060152	          0.00000000	
          0.47234743	          0.00000000	          0.00000000	          0.00000000	          0.00000000	          0.00000000	          0.00000000	        120.08952033	        280.38429086	         -9.74770641	          0.27637646	          0.00000000	          0.09140299	          0.00000000	          0.00000000	          0.00000000	          0.00000000	          0.33404944	          0.00000000	
          0.47321931	          0.00000000	          0.00000000	          0.00000000	          0.00000000	          0.00000000	          0.00000000	        118.10550739	        275.43171740	         -9.36207882	          0.27646229	          0.00000000	          0.09154541	          0.00000000	          0.00000000	          0.00000000	          0.00000000	          0.32624527	          0.00000000	
          0.47597409	          0.00000000	          0.00000000	          0.00000000	          0.00000000	          0.00000000	          0.00000000	        111.82784121	        259.79060206	         -8.12706639	          0.27674715	          0.00000000	          0.09199545	          0.00000000	          0.00000000	          0.00000000	          0.00000000	          0.30083416	          0.00000000	
